<?xml version="1.0" standalone="no"?>
<!DOCTYPE svg PUBLIC "-//W3C//DTD SVG 20010904//EN"
 "http://www.w3.org/TR/2001/REC-SVG-20010904/DTD/svg10.dtd">
<svg version="1.0" xmlns="http://www.w3.org/2000/svg"
 width="507.000000pt" height="68.000000pt" viewBox="0 0 507.000000 68.000000"
 preserveAspectRatio="xMidYMid meet">

<g transform="translate(0.000000,68.000000) scale(0.100000,-0.100000)"
fill="#000000" stroke="none">
<path d="M3947 506 c-73 -26 -77 -35 -77 -163 0 -110 1 -115 26 -138 64 -60
301 -59 361 1 29 29 32 84 4 84 -14 0 -21 -10 -25 -35 -5 -25 -15 -39 -36 -50
-69 -36 -211 -31 -257 9 -23 20 -27 32 -31 102 -8 153 19 184 163 184 99 0
145 -20 159 -67 12 -43 46 -47 46 -5 0 36 -33 67 -85 81 -55 15 -202 13 -248
-3z"/>
<path d="M4465 505 c-66 -24 -75 -42 -75 -160 0 -57 3 -111 6 -120 27 -70 298
-87 378 -24 34 27 38 89 6 89 -15 0 -20 -7 -20 -25 0 -58 -80 -91 -195 -82
-45 4 -78 13 -95 25 -24 18 -25 24 -28 135 l-3 116 28 18 c18 12 52 19 100 21
144 8 193 -19 193 -108 l0 -50 -155 0 -155 0 0 -55 c0 -51 2 -56 31 -71 44
-22 127 -29 187 -14 56 13 66 21 76 63 6 24 3 27 -18 27 -18 0 -25 -7 -29 -29
-5 -24 -14 -32 -46 -42 -45 -13 -124 -5 -141 16 -6 8 -14 28 -16 44 l-5 31
155 0 156 0 0 73 c0 82 -13 104 -79 126 -47 15 -207 13 -256 -4z"/>
<path d="M2950 340 l0 -170 155 0 c193 0 212 18 23 22 l-133 3 -3 158 c-2 149
-4 157 -22 157 -19 0 -20 -7 -20 -170z"/>
<path d="M3010 356 l0 -154 122 1 c87 2 123 6 126 15 3 9 -22 12 -102 12
l-106 0 0 140 c0 133 -1 140 -20 140 -19 0 -20 -7 -20 -154z"/>
<path d="M3350 370 c0 -134 1 -142 23 -164 60 -60 297 -61 361 -1 26 24 26 26
26 165 0 133 -1 140 -20 140 -11 0 -20 -6 -21 -12 0 -7 0 -57 1 -110 2 -128
-10 -172 -53 -189 -42 -18 -182 -18 -225 0 -19 8 -38 25 -43 38 -5 13 -9 80
-9 149 0 117 -1 124 -20 124 -19 0 -20 -7 -20 -140z"/>
<path d="M3412 368 l3 -143 30 -15 c43 -21 180 -20 223 3 l32 18 0 139 c0 133
-1 140 -20 140 -19 0 -20 -7 -20 -124 0 -103 -3 -127 -17 -145 -21 -25 -76
-36 -127 -27 -62 12 -66 22 -66 167 0 123 -1 129 -20 129 -20 0 -20 -5 -18
-142z"/>
<path d="M3970 472 l-35 -17 -3 -112 -3 -112 33 -18 c24 -13 55 -18 113 -18
101 0 139 17 143 63 3 26 0 32 -16 32 -14 0 -21 -9 -25 -29 -5 -24 -14 -32
-46 -42 -54 -16 -126 -4 -146 24 -20 28 -21 175 -1 202 10 13 30 20 72 23 73
5 111 -9 120 -43 9 -37 46 -35 42 3 -4 40 -55 62 -143 62 -47 0 -82 -6 -105
-18z"/>
<path d="M4490 473 c-32 -17 -35 -22 -38 -70 l-3 -53 152 0 152 0 -6 46 c-8
73 -29 87 -134 92 -71 2 -95 0 -123 -15z m188 -19 c15 -11 22 -25 22 -50 l0
-34 -99 0 c-55 0 -102 4 -105 9 -11 18 7 69 28 79 33 17 128 14 154 -4z"/>
</g>
</svg>
